<svg width="13" height="13" viewBox="0 0 13 13" fill="none" xmlns="http://www.w3.org/2000/svg">
<path d="M7.33564 7.33596L11.2316 7.33596C11.6621 7.33596 12.011 6.98701 12.0107 6.55688L12.0107 6.03749C12.0107 5.60689 11.6618 5.25795 11.2316 5.25835L7.33571 5.25835L7.33605 1.36202C7.33605 0.931556 6.9871 0.58261 6.55697 0.582946L6.03718 0.582542C5.60665 0.58261 5.2577 0.931556 5.25804 1.36169L5.25804 5.25835L1.36218 5.25835C0.93158 5.25835 0.582634 5.6073 0.583037 6.03749L0.583037 6.55688C0.583037 6.98735 0.931984 7.33629 1.36211 7.33596L5.25811 7.33596L5.25804 11.2319C5.25811 11.6624 5.60705 12.0114 6.03718 12.011H6.55657C6.9871 12.011 7.33605 11.662 7.33571 11.2319L7.33564 7.33596Z" fill="#64DCC0"/>
</svg>
