<svg width="1920" height="629" viewBox="0 0 1920 629" fill="none" xmlns="http://www.w3.org/2000/svg">
<path opacity="0.2" d="M379.384 1L-2428.09 628M429.19 1L-2170.32 628M478.996 1L-1912.73 628M528.627 1L-1654.96 628M578.433 1L-1397.2 628M628.238 1L-1139.43 628M678.044 1L-881.662 628M727.85 1L-623.896 628M777.656 1L-366.129 628M827.461 1L-108.363 628M877.267 1L149.404 628M927.073 1L407.171 628M976.879 1L664.937 628M1026.51 1L922.529 628M1076.32 1L1180.3 628M1126.12 1L1438.06 628M1175.93 1L1695.83 628M1225.73 1L1953.6 628M1275.54 1L2211.36 628M1325.34 1L2469.13 628M1375.15 1L2726.9 628M1424.96 1L2984.66 628M1474.59 1L3242.43 628M1524.39 1L3500.2 628M1574.2 1L3757.79 628M1624 1L4015.55 628M1673.81 1L4273.32 628M1723.62 1L4531.09 628M1739.17 1H363.656M1764.16 6.60085H338.666M1791.07 12.2017H311.754M1820.08 18.6869H282.919M1851.54 25.4669H251.462M1885.62 32.8364H217.385M1922.66 41.0903H180.336M1963.03 49.9337H139.793M2007.6 59.6615H95.4045M2056.53 70.2736H46.2976M2110.88 82.0649H-7.87756M2171.34 95.33H-68.518M2239.32 110.069H-136.324M2315.87 126.872H-212.867M2403.07 146.032H-300.071M2503.03 167.846H-400.207M2619.07 193.197H-516.245M2755.38 222.676H-652.381M2917.56 258.344H-814.555M3113.81 301.087H-1010.98M3356.37 353.853H-1253.37M3663.42 421.063H-1560.42M4064.84 508.613H-1961.84M4612 628H-2509" stroke="url(#paint0_linear_2_1358)" stroke-miterlimit="10"/>
<defs>
<linearGradient id="paint0_linear_2_1358" x1="1050.55" y1="47.7083" x2="1050.55" y2="518.141" gradientUnits="userSpaceOnUse">
<stop stop-color="#F9D5DD" stop-opacity="0"/>
<stop offset="0.401042" stop-color="#F9D5DD" stop-opacity="0.35"/>
<stop offset="1" stop-color="#FFEEF1" stop-opacity="0"/>
</linearGradient>
</defs>
</svg>
